<?xml version="1.0" standalone="no"?>
<!DOCTYPE svg PUBLIC "-//W3C//DTD SVG 20010904//EN"
 "http://www.w3.org/TR/2001/REC-SVG-20010904/DTD/svg10.dtd">
<svg version="1.0" xmlns="http://www.w3.org/2000/svg"
 width="700.000000pt" height="700.000000pt" viewBox="0 0 700.000000 700.000000"
 preserveAspectRatio="xMidYMid meet">
<metadata>
Created by potrace 1.14, written by Peter Selinger 2001-2017
</metadata>
<g transform="translate(0.000000,700.000000) scale(0.100000,-0.100000)"
fill="#000000" stroke="none">
<path d="M450 6770 c-170 -4 -210 -8 -237 -22 -40 -22 -78 -72 -90 -118 -5
-20 -9 -1255 -8 -2945 1 -3080 0 -2973 46 -3069 11 -22 19 -44 19 -49 0 -20
93 -138 146 -185 80 -72 211 -133 314 -148 39 -5 5720 -5 5729 0 4 3 23 8 42
11 18 3 59 16 89 28 174 71 316 232 366 417 16 61 17 233 18 2994 1 2806 0
2932 -17 2970 -23 52 -43 74 -90 97 -36 19 -63 20 -550 19 -282 0 -523 -2
-536 -5 -38 -7 -94 -56 -117 -103 l-22 -42 0 -2398 c0 -1757 -3 -2409 -11
-2440 -15 -55 -65 -110 -121 -135 -44 -20 -65 -21 -1795 -21 -962 -1 -1773 2
-1800 5 -129 17 -248 124 -279 253 -4 17 -7 1083 -7 2370 0 1533 -3 2354 -10
2379 -13 48 -70 113 -112 126 -37 12 -640 19 -967 11z"/>
<path d="M2370 5625 c0 -6 -26 -16 -57 -23 -134 -28 -270 -171 -301 -317 -5
-22 -8 -548 -6 -1170 2 -1227 -2 -1147 58 -1250 54 -92 159 -172 256 -195 28
-7 50 -16 50 -21 0 -5 467 -9 1130 -9 645 0 1130 4 1130 9 0 5 21 14 46 20
150 38 270 157 308 305 23 88 23 2245 0 2333 -36 138 -142 246 -291 297 -24 9
-43 13 -43 9 0 -3 -7 1 -17 8 -13 12 -202 14 -1140 14 -802 1 -1123 -2 -1123
-10z"/>
</g>
</svg>
